<?xml version="1.0" encoding="iso-8859-1"?>
<!-- Generator: Adobe Illustrator 19.0.0, SVG Export Plug-In . SVG Version: 6.00 Build 0)  -->
<svg version="1.1" id="Capa_1" xmlns="http://www.w3.org/2000/svg" xmlns:xlink="http://www.w3.org/1999/xlink" x="0px" y="0px"
	 viewBox="0 0 480.007 480.007" style="enable-background:new 0 0 512 512;fill:#9c9999">
<g>
	<g>
		<g>
			<path d="M424.007,63.999h-40v-56c0-2.33-1.017-4.545-2.784-6.064c-1.774-1.497-4.101-2.169-6.4-1.848l-368.056,56
				c-4.365,0.682-7.352,4.773-6.67,9.138c0.203,1.297,0.721,2.524,1.51,3.574l46.4,62.44v340.76c0,4.418,3.582,8,8,8h320
				c4.418,0,8-3.582,8-8v-328h40c4.418,0,8,3.582,8,8v160c0,13.255,10.745,24,24,24s24-10.745,24-24v-192
				C479.972,89.086,454.92,64.034,424.007,63.999z M368.007,463.999h-304v-32h304V463.999z M368.007,415.999h-304v-80h176v8
				c0,22.091,17.909,40,40,40c22.091,0,40-17.909,40-40v-8h48V415.999z M256.007,343.999v-160c0-13.255,10.745-24,24-24
				s24,10.745,24,24v160c0,13.255-10.745,24-24,24S256.007,357.254,256.007,343.999z M368.007,319.999h-48v-136
				c0-22.091-17.909-40-40-40c-22.091,0-40,17.909-40,40v136h-176V128.591c0-1.731-0.561-3.415-1.6-4.8L22.319,69.847l94.24-14.808
				l6.32,8.216c15.843,20.585,41.54,31.047,67.256,27.384l177.872-25.416V319.999z M368.007,49.063L187.871,74.799
				c-19.996,2.825-39.968-5.307-52.304-21.296l-0.936-1.208l233.376-35.008V49.063z M464.007,311.999c0,4.418-3.582,8-8,8
				s-8-3.582-8-8v-160c0-13.255-10.745-24-24-24h-40v-48h40c22.08,0.026,39.974,17.92,40,40V311.999z"/>
			<path d="M296.007,343.999c0-4.418-3.582-8-8-8h-16c-4.418,0-8,3.582-8,8s3.582,8,8,8h16
				C292.425,351.999,296.007,348.417,296.007,343.999z"/>
			<path d="M272.007,319.999h16c4.418,0,8-3.582,8-8s-3.582-8-8-8h-16c-4.418,0-8,3.582-8,8S267.589,319.999,272.007,319.999z"/>
			<path d="M272.007,287.999h16c4.418,0,8-3.582,8-8s-3.582-8-8-8h-16c-4.418,0-8,3.582-8,8S267.589,287.999,272.007,287.999z"/>
			<path d="M272.007,255.999h16c4.418,0,8-3.582,8-8s-3.582-8-8-8h-16c-4.418,0-8,3.582-8,8S267.589,255.999,272.007,255.999z"/>
			<path d="M272.007,223.999h16c4.418,0,8-3.582,8-8s-3.582-8-8-8h-16c-4.418,0-8,3.582-8,8S267.589,223.999,272.007,223.999z"/>
			<path d="M272.007,191.999h16c4.418,0,8-3.582,8-8s-3.582-8-8-8h-16c-4.418,0-8,3.582-8,8S267.589,191.999,272.007,191.999z"/>
		</g>
	</g>
</g>
<g>
</g>
<g>
</g>
<g>
</g>
<g>
</g>
<g>
</g>
<g>
</g>
<g>
</g>
<g>
</g>
<g>
</g>
<g>
</g>
<g>
</g>
<g>
</g>
<g>
</g>
<g>
</g>
<g>
</g>
</svg>
