<svg height="480pt" viewBox="0 -56 480 480" width="480pt" xmlns="http://www.w3.org/2000/svg" style="enable-background:new 0 0 512 512;fill:#9c9999" ><path d="m472 0h-464c-2.121094 0-4.15625.839844-5.65625 2.34375-1.503906 1.5-2.34375 3.535156-2.34375 5.65625v320c0 2.121094.839844 4.15625 2.34375 5.65625 1.5 1.503906 3.535156 2.34375 5.65625 2.34375h24v24c0 2.121094.839844 4.15625 2.34375 5.65625 1.5 1.503906 3.535156 2.34375 5.65625 2.34375h32c2.121094 0 4.15625-.839844 5.65625-2.34375 1.503906-1.5 2.34375-3.535156 2.34375-5.65625v-24h320v24c0 2.121094.839844 4.15625 2.34375 5.65625 1.5 1.503906 3.535156 2.34375 5.65625 2.34375h32c2.121094 0 4.15625-.839844 5.65625-2.34375 1.503906-1.5 2.34375-3.535156 2.34375-5.65625v-24h24c2.121094 0 4.15625-.839844 5.65625-2.34375 1.503906-1.5 2.34375-3.535156 2.34375-5.65625v-320c0-2.121094-.839844-4.15625-2.34375-5.65625-1.5-1.503906-3.535156-2.34375-5.65625-2.34375zm-456 16h352v304h-352zm48 336h-16v-16h16zm368 0h-16v-16h16zm32-168v136h-80v-304h80zm0 0"/><path d="m48 296h288c2.121094 0 4.15625-.839844 5.65625-2.34375 1.503906-1.5 2.34375-3.535156 2.34375-5.65625v-240c0-2.121094-.839844-4.15625-2.34375-5.65625-1.5-1.503906-3.535156-2.34375-5.65625-2.34375h-288c-2.121094 0-4.15625.839844-5.65625 2.34375-1.503906 1.5-2.34375 3.535156-2.34375 5.65625v240c0 2.121094.839844 4.15625 2.34375 5.65625 1.5 1.503906 3.535156 2.34375 5.65625 2.34375zm8-240h272v224h-272zm0 0"/><path d="m424 224c-22.089844 0-40 17.910156-40 40s17.910156 40 40 40 40-17.910156 40-40c-.027344-22.082031-17.917969-39.972656-40-40zm0 64c-13.253906 0-24-10.746094-24-24s10.746094-24 24-24 24 10.746094 24 24c-.015625 13.25-10.75 23.984375-24 24zm0 0"/><path d="m424 144c-22.089844 0-40 17.910156-40 40s17.910156 40 40 40 40-17.910156 40-40c-.027344-22.082031-17.917969-39.972656-40-40zm0 64c-13.253906 0-24-10.746094-24-24s10.746094-24 24-24 24 10.746094 24 24c-.015625 13.25-10.75 23.984375-24 24zm0 0"/><path d="m408 80h32c2.121094 0 4.15625-.839844 5.65625-2.34375 1.503906-1.5 2.34375-3.535156 2.34375-5.65625v-32c0-2.121094-.839844-4.15625-2.34375-5.65625-1.5-1.503906-3.535156-2.34375-5.65625-2.34375h-32c-2.121094 0-4.15625.839844-5.65625 2.34375-1.503906 1.5-2.34375 3.535156-2.34375 5.65625v32c0 2.121094.839844 4.15625 2.34375 5.65625 1.5 1.503906 3.535156 2.34375 5.65625 2.34375zm8-32h16v16h-16zm0 0"/><path d="m408 112h32c4.417969 0 8-3.582031 8-8s-3.582031-8-8-8h-32c-4.417969 0-8 3.582031-8 8s3.582031 8 8 8zm0 0"/><path d="m245.125 147.492188c6.558594-4.359376 10.609375-11.621094 10.875-19.492188 0-4.417969-3.582031-8-8-8s-8 3.582031-8 8c0 2.703125-1.25 3.96875-5.125 7.203125-6.757812 4.167969-10.875 11.542969-10.875 19.484375s4.117188 15.316406 10.875 19.484375c3.875 3.226563 5.125 4.492187 5.125 7.1875 0 2.570313-1.03125 3.765625-5.117188 7.171875-6.5625 4.347656-10.617187 11.601562-10.882812 19.46875 0 4.417969 3.582031 8 8 8s8-3.582031 8-8c0-2.570312 1.03125-3.765625 5.117188-7.171875 6.761718-4.160156 10.882812-11.53125 10.882812-19.46875 0-7.941406-4.113281-15.3125-10.875-19.476563-3.875-3.234374-5.125-4.5-5.125-7.203124 0-2.695313 1.25-3.960938 5.125-7.1875zm0 0"/><path d="m149.125 147.492188c6.558594-4.359376 10.609375-11.621094 10.875-19.492188 0-4.417969-3.582031-8-8-8s-8 3.582031-8 8c0 2.703125-1.25 3.96875-5.125 7.203125-6.757812 4.167969-10.875 11.542969-10.875 19.484375s4.117188 15.316406 10.875 19.484375c3.875 3.226563 5.125 4.492187 5.125 7.1875 0 2.570313-1.03125 3.765625-5.117188 7.171875-6.5625 4.347656-10.617187 11.601562-10.882812 19.46875 0 4.417969 3.582031 8 8 8s8-3.582031 8-8c0-2.570312 1.03125-3.765625 5.117188-7.171875 6.761718-4.160156 10.882812-11.53125 10.882812-19.46875 0-7.941406-4.113281-15.3125-10.875-19.476563-3.875-3.234374-5.125-4.5-5.125-7.203124 0-2.695313 1.25-3.960938 5.125-7.1875zm0 0"/><path d="m197.125 147.492188c6.558594-4.359376 10.609375-11.621094 10.875-19.492188 0-4.417969-3.582031-8-8-8s-8 3.582031-8 8c0 2.703125-1.25 3.96875-5.125 7.203125-6.757812 4.167969-10.875 11.542969-10.875 19.484375s4.117188 15.316406 10.875 19.484375c3.875 3.226563 5.125 4.492187 5.125 7.1875 0 2.570313-1.03125 3.765625-5.117188 7.171875-6.5625 4.347656-10.617187 11.601562-10.882812 19.46875 0 4.417969 3.582031 8 8 8s8-3.582031 8-8c0-2.570312 1.03125-3.765625 5.117188-7.171875 6.761718-4.160156 10.882812-11.53125 10.882812-19.46875 0-7.941406-4.113281-15.3125-10.875-19.476563-3.875-3.234374-5.125-4.5-5.125-7.203124 0-2.695313 1.25-3.960938 5.125-7.1875zm0 0"/></svg>