<svg height="480pt" viewBox="0 -40 480 480" width="480pt" xmlns="http://www.w3.org/2000/svg" style="enable-background:new 0 0 512 512;fill:#9c9999"><path d="m360 80h-160c-2.757812 0-5.320312 1.421875-6.785156 3.757812l-40 64c-1.539063 2.464844-1.621094 5.574219-.210938 8.117188s4.089844 4.125 6.996094 4.125h200c4.417969 0 8-3.582031 8-8v-64c0-4.417969-3.582031-8-8-8zm-112 64v-16h64v16zm104 0h-24v-24c0-4.417969-3.582031-8-8-8h-80c-4.417969 0-8 3.582031-8 8v24h-57.566406l30-48h147.566406zm0 0"/><path d="m360 176h-16c-4.417969 0-8 3.582031-8 8s3.582031 8 8 8h16c4.417969 0 8-3.582031 8-8s-3.582031-8-8-8zm0 0"/><path d="m312 176h-16c-4.417969 0-8 3.582031-8 8s3.582031 8 8 8h16c4.417969 0 8-3.582031 8-8s-3.582031-8-8-8zm0 0"/><path d="m472 0c-17.664062.0195312-31.980469 14.335938-32 32v16c-.011719 8.832031-7.167969 15.988281-16 16h-2.523438l-6.453124-11.828125c-1.402344-2.570313-4.09375-4.171875-7.023438-4.171875h-128v-24c0-4.417969-3.582031-8-8-8h-48c-4.417969 0-8 3.582031-8 8v24h-24c-67.621094 0-87.378906 46.742188-110.257812 100.859375-10.164063 26.238281-22.902344 51.410156-38.023438 75.140625h-3.71875c-22.082031.027344-39.9726562 17.917969-40 40 0 4.417969 3.582031 8 8 8h400c4.417969 0 8-3.582031 8-8v-32c0-4.417969-3.582031-8-8-8h-13.914062l67.832031-74.617188c2.292969-2.519531 2.738281-6.21875 1.105469-9.210937l-33.144532-60.765625c15.121094-2.832031 26.09375-16.019531 26.121094-31.40625v-16c.011719-8.832031 7.167969-15.988281 16-16 4.417969 0 8-3.582031 8-8s-3.582031-8-8-8zm-240 32h32v16h-32zm168 224h-382.628906c3.402344-9.582031 12.460937-15.988281 22.628906-16h360zm-27.539062-32h-309.636719c12.988281-22.0625 24.238281-45.101562 33.65625-68.90625 22.355469-52.882812 38.507812-91.09375 95.519531-91.09375h211.25l43 78.828125zm0 0"/><path d="m147.199219 349.570312c-6.878907 3.5625-11.199219 10.664063-11.199219 18.410157 0 7.746093 4.320312 14.847656 11.199219 18.410156 4.039062 3.03125 4.800781 3.921875 4.800781 5.609375 0 4.417969 3.582031 8 8 8s8-3.582031 8-8c-.34375-7.644531-4.566406-14.585938-11.195312-18.40625-4.042969-3.03125-4.804688-3.921875-4.804688-5.617188 0-1.6875.761719-2.578124 4.800781-5.609374 6.878907-3.558594 11.199219-10.65625 11.199219-18.398438 0-7.746094-4.324219-14.84375-11.203125-18.398438-4.035156-3.03125-4.796875-3.914062-4.796875-5.59375 0-1.679687.761719-2.5625 4.800781-5.59375 6.632813-3.808593 10.855469-10.742187 11.199219-18.382812 0-4.417969-3.582031-8-8-8s-8 3.582031-8 8c0 1.671875-.761719 2.5625-4.796875 5.578125-6.878906 3.554687-11.203125 10.652344-11.203125 18.394531 0 7.746094 4.324219 14.839844 11.203125 18.394532 4.035156 3.03125 4.796875 3.914062 4.796875 5.59375 0 1.6875-.761719 2.578124-4.800781 5.609374zm0 0"/><path d="m203.199219 349.570312c-6.878907 3.5625-11.199219 10.664063-11.199219 18.410157 0 7.746093 4.320312 14.847656 11.199219 18.410156 4.039062 3.03125 4.800781 3.921875 4.800781 5.609375 0 4.417969 3.582031 8 8 8s8-3.582031 8-8c-.34375-7.644531-4.566406-14.585938-11.195312-18.40625-4.042969-3.03125-4.804688-3.921875-4.804688-5.617188 0-1.6875.761719-2.578124 4.800781-5.609374 6.878907-3.558594 11.199219-10.65625 11.199219-18.398438 0-7.746094-4.324219-14.84375-11.203125-18.398438-4.035156-3.03125-4.796875-3.914062-4.796875-5.59375 0-1.679687.761719-2.5625 4.800781-5.59375 6.632813-3.808593 10.855469-10.742187 11.199219-18.382812 0-4.417969-3.582031-8-8-8s-8 3.582031-8 8c0 1.671875-.761719 2.5625-4.796875 5.578125-6.878906 3.554687-11.203125 10.652344-11.203125 18.394531 0 7.746094 4.324219 14.839844 11.203125 18.394532 4.035156 3.03125 4.796875 3.914062 4.796875 5.59375 0 1.6875-.761719 2.578124-4.800781 5.609374zm0 0"/><path d="m259.199219 349.570312c-6.878907 3.5625-11.199219 10.664063-11.199219 18.410157 0 7.746093 4.320312 14.847656 11.199219 18.410156 4.039062 3.03125 4.800781 3.921875 4.800781 5.609375 0 4.417969 3.582031 8 8 8s8-3.582031 8-8c-.34375-7.644531-4.566406-14.585938-11.195312-18.40625-4.042969-3.03125-4.804688-3.921875-4.804688-5.617188 0-1.6875.761719-2.578124 4.800781-5.609374 6.878907-3.558594 11.199219-10.65625 11.199219-18.398438 0-7.746094-4.324219-14.84375-11.203125-18.398438-4.035156-3.03125-4.796875-3.914062-4.796875-5.59375 0-1.679687.761719-2.5625 4.800781-5.59375 6.632813-3.808593 10.855469-10.742187 11.199219-18.382812 0-4.417969-3.582031-8-8-8s-8 3.582031-8 8c0 1.671875-.761719 2.5625-4.796875 5.578125-6.878906 3.554687-11.203125 10.652344-11.203125 18.394531 0 7.746094 4.324219 14.839844 11.203125 18.394532 4.035156 3.03125 4.796875 3.914062 4.796875 5.59375 0 1.6875-.761719 2.578124-4.800781 5.609374zm0 0"/></svg>