<?xml version="1.0" encoding="iso-8859-1"?>
<!-- Generator: Adobe Illustrator 19.1.0, SVG Export Plug-In . SVG Version: 6.00 Build 0)  -->
<svg version="1.1" id="Capa_1" xmlns="http://www.w3.org/2000/svg" xmlns:xlink="http://www.w3.org/1999/xlink" x="0px" y="0px"
	 viewBox="0 0 62.313 62.313" style="enable-background:new 0 0 62.313 62.313; fill:#9c9999;" xml:space="preserve">
<g>
	<g>
		<g id="group-22svg">
			<path id="path-1_13_" d="M39.213,46.813c0,3.038-2.463,5.5-5.5,5.5h-3c-3.038,0-5.5-2.462-5.5-5.5v-6c0-3.037,2.462-5.5,5.5-5.5
				h3c3.037,0,5.5,2.463,5.5,5.5V46.813z M36.213,40.813c0-1.38-1.119-2.5-2.5-2.5h-3c-1.381,0-2.5,1.12-2.5,2.5v6
				c0,1.381,1.119,2.5,2.5,2.5h3c1.381,0,2.5-1.119,2.5-2.5V40.813z"/>
			<path id="path-2_13_" d="M31.157,33.082c-9.121,0-16.541-7.42-16.541-16.541S22.036,0,31.157,0c9.12,0,16.54,7.42,16.54,16.541
				S40.277,33.082,31.157,33.082z M31.157,3C23.69,3,17.616,9.075,17.616,16.541s6.074,13.541,13.541,13.541
				c7.466,0,13.54-6.075,13.54-13.541S38.623,3,31.157,3z"/>
			<path id="path-3_13_" d="M31.157,21.732c-2.862,0-5.191-2.329-5.191-5.191s2.329-5.19,5.191-5.19c2.862,0,5.19,2.328,5.19,5.19
				S34.019,21.732,31.157,21.732z M31.157,14.351c-1.208,0-2.191,0.982-2.191,2.19s0.983,2.191,2.191,2.191
				c1.208,0,2.191-0.983,2.191-2.191S32.365,14.351,31.157,14.351z"/>
			<path id="path-4_13_" d="M31.713,60.813c-0.828,0-1.5-0.671-1.5-1.5v-8c0-0.828,0.672-1.5,1.5-1.5s1.5,0.672,1.5,1.5v8
				C33.213,60.142,32.541,60.813,31.713,60.813z"/>
			<path id="path-5_13_" d="M31.713,37.813c-0.828,0-1.5-0.671-1.5-1.5v-5c0-0.828,0.672-1.5,1.5-1.5s1.5,0.672,1.5,1.5v5
				C33.213,37.142,32.541,37.813,31.713,37.813z"/>
			<path id="path-6_12_" d="M41.786,62.313h-22c-0.828,0-1.5-0.671-1.5-1.5c0-0.828,0.672-1.5,1.5-1.5h22c0.828,0,1.5,0.672,1.5,1.5
				C43.286,61.642,42.614,62.313,41.786,62.313z"/>
			<path id="path-7_10_" d="M36.001,26.937c-2.205,0-4.279-1.365-5.069-3.556l-0.822-2.282c-0.281-0.78,0.123-1.639,0.903-1.92
				c0.778-0.28,1.638,0.123,1.919,0.903l0.823,2.282c0.445,1.234,1.814,1.877,3.048,1.432l1.369-0.494
				c0.779-0.281,1.638,0.123,1.92,0.903c0.281,0.779-0.123,1.638-0.903,1.919l-1.369,0.494
				C37.22,26.834,36.605,26.937,36.001,26.937z"/>
			<path id="path-8_9_" d="M30.955,13.588c-0.499,0-0.987-0.249-1.273-0.704l-0.822-1.312c-0.056-0.091-0.103-0.187-0.14-0.288
				c-0.215-0.598-0.651-1.076-1.226-1.347c-0.576-0.27-1.223-0.301-1.821-0.085l-1.369,0.494c-0.78,0.28-1.639-0.123-1.92-0.903
				c-0.282-0.779,0.123-1.638,0.902-1.92l1.369-0.493c2.737-0.987,5.762,0.39,6.826,3.075l0.744,1.187
				c0.44,0.701,0.227,1.627-0.474,2.067C31.503,13.514,31.227,13.588,30.955,13.588z"/>
			<path id="path-9_7_" d="M34.966,16.747c-0.568,0-1.11-0.324-1.364-0.872c-0.346-0.752-0.018-1.644,0.734-1.991l2.203-1.017
				c1.191-0.551,1.714-1.969,1.163-3.16l-0.609-1.322c-0.348-0.752-0.02-1.643,0.732-1.99c0.747-0.348,1.643-0.02,1.99,0.732
				l0.611,1.322c1.244,2.694,0.064,5.897-2.629,7.142l-2.203,1.017C35.389,16.702,35.176,16.747,34.966,16.747z"/>
			<path id="path-10_5_" d="M24.022,25.452c-0.566,0-1.109-0.324-1.362-0.872l-0.61-1.321c-1.245-2.695-0.065-5.898,2.63-7.142
				l2.202-1.017c0.752-0.349,1.643-0.019,1.99,0.733c0.348,0.752,0.019,1.644-0.733,1.991l-2.202,1.017
				c-1.192,0.55-1.714,1.968-1.164,3.16l0.61,1.321c0.347,0.752,0.019,1.643-0.733,1.991C24.447,25.407,24.233,25.452,24.022,25.452
				z"/>
			<path id="path-11_4_" d="M33.421,41.094c0,0.803-0.652,1.455-1.455,1.455c-0.805,0-1.456-0.652-1.456-1.455
				c0-0.804,0.651-1.456,1.456-1.456C32.769,39.638,33.421,40.29,33.421,41.094z"/>
			<path id="path-12_2_" d="M33.421,45.945c0,0.804-0.652,1.456-1.455,1.456c-0.805,0-1.456-0.652-1.456-1.456
				c0-0.803,0.651-1.455,1.456-1.455C32.769,44.49,33.421,45.142,33.421,45.945z"/>
		</g>
	</g>
	<g>
	</g>
	<g>
	</g>
	<g>
	</g>
	<g>
	</g>
	<g>
	</g>
	<g>
	</g>
	<g>
	</g>
	<g>
	</g>
	<g>
	</g>
	<g>
	</g>
	<g>
	</g>
	<g>
	</g>
	<g>
	</g>
	<g>
	</g>
	<g>
	</g>
</g>
<g>
</g>
<g>
</g>
<g>
</g>
<g>
</g>
<g>
</g>
<g>
</g>
<g>
</g>
<g>
</g>
<g>
</g>
<g>
</g>
<g>
</g>
<g>
</g>
<g>
</g>
<g>
</g>
<g>
</g>
</svg>
